<?xml version="1.0" encoding="UTF-8" standalone="no"?>
<!DOCTYPE svg PUBLIC "-//W3C//DTD SVG 1.1//EN"
 "http://www.w3.org/Graphics/SVG/1.1/DTD/svg11.dtd">
<!-- Generated by graphviz version 7.1.0 (20230121.1956)
 -->
<!-- Title: Bot Transitions Pages: 1 -->
<svg width="1041pt" height="814pt"
 viewBox="0.00 0.00 1041.00 814.00" xmlns="http://www.w3.org/2000/svg" xmlns:xlink="http://www.w3.org/1999/xlink">
<g id="graph0" class="graph" transform="scale(1 1) rotate(0) translate(144 670)">
<title>Bot Transitions</title>
<polygon fill="white" stroke="none" points="-144,144 -144,-670 897,-670 897,144 -144,144"/>
<text text-anchor="middle" x="376.5" y="-9" font-family="Sans-Serif" font-size="15.00" fill="#2d3436">Bot Transitions</text>
<g id="clust3" class="cluster">
<title>cluster_MainSG.Interests</title>
<path fill="#e5f5fd" stroke="#aeb6be" d="M175,-33C175,-33 733,-33 733,-33 739,-33 745,-39 745,-45 745,-45 745,-196 745,-196 745,-202 739,-208 733,-208 733,-208 175,-208 175,-208 169,-208 163,-202 163,-196 163,-196 163,-45 163,-45 163,-39 169,-33 175,-33"/>
<text text-anchor="middle" x="216" y="-194.4" font-family="Sans-Serif" font-size="12.00" fill="#2d3436">MainSG.Interests</text>
</g>
<g id="clust2" class="cluster">
<title>cluster_MainSG.Help</title>
<path fill="#e5f5fd" stroke="#aeb6be" d="M175,-216C175,-216 423,-216 423,-216 429,-216 435,-222 435,-228 435,-228 435,-379 435,-379 435,-385 429,-391 423,-391 423,-391 175,-391 175,-391 169,-391 163,-385 163,-379 163,-379 163,-228 163,-228 163,-222 169,-216 175,-216"/>
<text text-anchor="middle" x="205" y="-377.4" font-family="Sans-Serif" font-size="12.00" fill="#2d3436">MainSG.Help</text>
</g>
<g id="clust4" class="cluster">
<title>cluster_AdminSG</title>
<path fill="#e5f5fd" stroke="#aeb6be" d="M20,-325C20,-325 113,-325 113,-325 119,-325 125,-331 125,-337 125,-337 125,-506 125,-506 125,-512 119,-518 113,-518 113,-518 20,-518 20,-518 14,-518 8,-512 8,-506 8,-506 8,-337 8,-337 8,-331 14,-325 20,-325"/>
<text text-anchor="middle" x="41.5" y="-504.4" font-family="Sans-Serif" font-size="12.00" fill="#2d3436">AdminSG</text>
</g>
<g id="clust1" class="cluster">
<title>cluster_MainSG</title>
<path fill="#e5f5fd" stroke="#aeb6be" d="M20,-124C20,-124 113,-124 113,-124 119,-124 125,-130 125,-136 125,-136 125,-305 125,-305 125,-311 119,-317 113,-317 113,-317 20,-317 20,-317 14,-317 8,-311 8,-305 8,-305 8,-136 8,-136 8,-130 14,-124 20,-124"/>
<text text-anchor="middle" x="36" y="-303.4" font-family="Sans-Serif" font-size="12.00" fill="#2d3436">MainSG</text>
</g>
<!-- ea2fe9f725f64a17b14782b1fa98a049 -->
<g id="node1" class="node">
<title>ea2fe9f725f64a17b14782b1fa98a049</title>
<image xlink:href="C:\Users\dante\AppData\Local\pypoetry\Cache\virtualenvs\sirius-olympiad-Gea_4FZI-py3.11\Lib\site-packages\aiogram_dialog\tools\calculator.png" width="101px" height="101px" preserveAspectRatio="xMinYMin meet" x="16" y="-251.5"/>
<text text-anchor="middle" x="66.5" y="-136.1" font-family="Sans-Serif" font-size="13.00" fill="#2d3436">MainSG:Hello</text>
</g>
<!-- ea2fe9f725f64a17b14782b1fa98a049&#45;&gt;ea2fe9f725f64a17b14782b1fa98a049 -->
<g id="edge2" class="edge">
<title>ea2fe9f725f64a17b14782b1fa98a049&#45;&gt;ea2fe9f725f64a17b14782b1fa98a049</title>
<path fill="none" stroke="grey" d="M66.5,-201C66.5,-201 66.5,-201 66.5,-201"/>
<polygon fill="grey" stroke="grey" points="81.07,-208.57 67.57,-202.07 74.07,-215.57 81.07,-208.57"/>
</g>
<!-- 1cd73855b0dd445e82dc6f37c1324545 -->
<g id="node2" class="node">
<title>1cd73855b0dd445e82dc6f37c1324545</title>
<image xlink:href="C:\Users\dante\AppData\Local\pypoetry\Cache\virtualenvs\sirius-olympiad-Gea_4FZI-py3.11\Lib\site-packages\aiogram_dialog\tools\calculator.png" width="101px" height="101px" preserveAspectRatio="xMinYMin meet" x="171" y="-343.5"/>
<text text-anchor="middle" x="221.5" y="-228.1" font-family="Sans-Serif" font-size="13.00" fill="#2d3436">MainSG.Help:Help</text>
</g>
<!-- ea2fe9f725f64a17b14782b1fa98a049&#45;&gt;1cd73855b0dd445e82dc6f37c1324545 -->
<g id="edge3" class="edge">
<title>ea2fe9f725f64a17b14782b1fa98a049&#45;&gt;1cd73855b0dd445e82dc6f37c1324545</title>
<path fill="none" stroke="#338a3e" d="M116.71,-243.44C127.51,-249.89 141.09,-256.66 160.87,-265.78"/>
<polygon fill="#338a3e" stroke="#338a3e" points="159.17,-268.85 169.72,-269.82 162.08,-262.48 159.17,-268.85"/>
</g>
<!-- 6aa5ca9e290b4b4c941132ebc33ac366 -->
<g id="node4" class="node">
<title>6aa5ca9e290b4b4c941132ebc33ac366</title>
<image xlink:href="C:\Users\dante\AppData\Local\pypoetry\Cache\virtualenvs\sirius-olympiad-Gea_4FZI-py3.11\Lib\site-packages\aiogram_dialog\tools\calculator.png" width="101px" height="101px" preserveAspectRatio="xMinYMin meet" x="171" y="-160.5"/>
<text text-anchor="middle" x="221.5" y="-45.1" font-family="Sans-Serif" font-size="13.00" fill="#2d3436">MainSG.Interests:Start</text>
</g>
<!-- ea2fe9f725f64a17b14782b1fa98a049&#45;&gt;6aa5ca9e290b4b4c941132ebc33ac366 -->
<g id="edge1" class="edge">
<title>ea2fe9f725f64a17b14782b1fa98a049&#45;&gt;6aa5ca9e290b4b4c941132ebc33ac366</title>
<path fill="none" stroke="#338a3e" d="M116.93,-145.04C127.81,-138.09 141.06,-132.77 160.58,-126.79"/>
<polygon fill="#338a3e" stroke="#338a3e" points="161.34,-130.22 169.93,-124.02 159.35,-123.51 161.34,-130.22"/>
</g>
<!-- 74bc97fa357b4d4eb2904b8579542ae6 -->
<g id="node3" class="node">
<title>74bc97fa357b4d4eb2904b8579542ae6</title>
<image xlink:href="C:\Users\dante\AppData\Local\pypoetry\Cache\virtualenvs\sirius-olympiad-Gea_4FZI-py3.11\Lib\site-packages\aiogram_dialog\tools\calculator.png" width="101px" height="101px" preserveAspectRatio="xMinYMin meet" x="326" y="-343.5"/>
<text text-anchor="middle" x="376.5" y="-228.1" font-family="Sans-Serif" font-size="13.00" fill="#2d3436">MainSG.Help:FAQ</text>
</g>
<!-- 1cd73855b0dd445e82dc6f37c1324545&#45;&gt;74bc97fa357b4d4eb2904b8579542ae6 -->
<g id="edge4" class="edge">
<title>1cd73855b0dd445e82dc6f37c1324545&#45;&gt;74bc97fa357b4d4eb2904b8579542ae6</title>
<path fill="none" stroke="#0086c3" d="M271.82,-307.86C285.56,-308.8 300.61,-308.99 314.9,-308.45"/>
<polygon fill="#0086c3" stroke="#0086c3" points="314.85,-311.96 324.65,-307.94 314.48,-304.97 314.85,-311.96"/>
</g>
<!-- 74bc97fa357b4d4eb2904b8579542ae6&#45;&gt;1cd73855b0dd445e82dc6f37c1324545 -->
<g id="edge5" class="edge">
<title>74bc97fa357b4d4eb2904b8579542ae6&#45;&gt;1cd73855b0dd445e82dc6f37c1324545</title>
<path fill="none" stroke="grey" d="M271.84,-277.44C285.58,-276.45 300.62,-276.24 314.92,-276.81"/>
<polygon fill="grey" stroke="grey" points="314.49,-280.29 324.66,-277.35 314.87,-273.31 314.49,-280.29"/>
</g>
<!-- cc7b3887df404141b39fb1e8b0151e1c -->
<g id="node5" class="node">
<title>cc7b3887df404141b39fb1e8b0151e1c</title>
<image xlink:href="C:\Users\dante\AppData\Local\pypoetry\Cache\virtualenvs\sirius-olympiad-Gea_4FZI-py3.11\Lib\site-packages\aiogram_dialog\tools\calculator.png" width="101px" height="101px" preserveAspectRatio="xMinYMin meet" x="326" y="-160.5"/>
<text text-anchor="middle" x="376.5" y="-45.1" font-family="Sans-Serif" font-size="13.00" fill="#2d3436">MainSG.Interests:Classes</text>
</g>
<!-- 6aa5ca9e290b4b4c941132ebc33ac366&#45;&gt;cc7b3887df404141b39fb1e8b0151e1c -->
<g id="edge6" class="edge">
<title>6aa5ca9e290b4b4c941132ebc33ac366&#45;&gt;cc7b3887df404141b39fb1e8b0151e1c</title>
<path fill="none" stroke="#0086c3" d="M271.82,-124.86C285.56,-125.8 300.61,-125.99 314.9,-125.45"/>
<polygon fill="#0086c3" stroke="#0086c3" points="314.85,-128.96 324.65,-124.94 314.48,-121.97 314.85,-128.96"/>
</g>
<!-- cc7b3887df404141b39fb1e8b0151e1c&#45;&gt;6aa5ca9e290b4b4c941132ebc33ac366 -->
<g id="edge8" class="edge">
<title>cc7b3887df404141b39fb1e8b0151e1c&#45;&gt;6aa5ca9e290b4b4c941132ebc33ac366</title>
<path fill="none" stroke="grey" d="M271.84,-94.44C285.58,-93.45 300.62,-93.24 314.92,-93.81"/>
<polygon fill="grey" stroke="grey" points="314.49,-97.29 324.66,-94.35 314.87,-90.31 314.49,-97.29"/>
</g>
<!-- 2a9ffd53302e4cfeb6f2fc5e672366db -->
<g id="node6" class="node">
<title>2a9ffd53302e4cfeb6f2fc5e672366db</title>
<image xlink:href="C:\Users\dante\AppData\Local\pypoetry\Cache\virtualenvs\sirius-olympiad-Gea_4FZI-py3.11\Lib\site-packages\aiogram_dialog\tools\calculator.png" width="101px" height="101px" preserveAspectRatio="xMinYMin meet" x="481" y="-160.5"/>
<text text-anchor="middle" x="531.5" y="-45.1" font-family="Sans-Serif" font-size="13.00" fill="#2d3436">MainSG.Interests:Subjects</text>
</g>
<!-- cc7b3887df404141b39fb1e8b0151e1c&#45;&gt;2a9ffd53302e4cfeb6f2fc5e672366db -->
<g id="edge7" class="edge">
<title>cc7b3887df404141b39fb1e8b0151e1c&#45;&gt;2a9ffd53302e4cfeb6f2fc5e672366db</title>
<path fill="none" stroke="#0086c3" d="M426.82,-124.86C440.56,-125.8 455.61,-125.99 469.9,-125.45"/>
<polygon fill="#0086c3" stroke="#0086c3" points="469.85,-128.96 479.65,-124.94 469.48,-121.97 469.85,-128.96"/>
</g>
<!-- 2a9ffd53302e4cfeb6f2fc5e672366db&#45;&gt;cc7b3887df404141b39fb1e8b0151e1c -->
<g id="edge10" class="edge">
<title>2a9ffd53302e4cfeb6f2fc5e672366db&#45;&gt;cc7b3887df404141b39fb1e8b0151e1c</title>
<path fill="none" stroke="grey" d="M426.84,-94.44C440.58,-93.45 455.62,-93.24 469.92,-93.81"/>
<polygon fill="grey" stroke="grey" points="469.49,-97.29 479.66,-94.35 469.87,-90.31 469.49,-97.29"/>
</g>
<!-- 8442d1f42adb4e02b88203c3f0b056da -->
<g id="node7" class="node">
<title>8442d1f42adb4e02b88203c3f0b056da</title>
<image xlink:href="C:\Users\dante\AppData\Local\pypoetry\Cache\virtualenvs\sirius-olympiad-Gea_4FZI-py3.11\Lib\site-packages\aiogram_dialog\tools\calculator.png" width="101px" height="101px" preserveAspectRatio="xMinYMin meet" x="636" y="-160.5"/>
<text text-anchor="middle" x="686.5" y="-45.1" font-family="Sans-Serif" font-size="13.00" fill="#2d3436">MainSG.Interests:Levels</text>
</g>
<!-- 2a9ffd53302e4cfeb6f2fc5e672366db&#45;&gt;8442d1f42adb4e02b88203c3f0b056da -->
<g id="edge9" class="edge">
<title>2a9ffd53302e4cfeb6f2fc5e672366db&#45;&gt;8442d1f42adb4e02b88203c3f0b056da</title>
<path fill="none" stroke="#0086c3" d="M581.82,-124.86C595.56,-125.8 610.61,-125.99 624.9,-125.45"/>
<polygon fill="#0086c3" stroke="#0086c3" points="624.85,-128.96 634.65,-124.94 624.48,-121.97 624.85,-128.96"/>
</g>
<!-- 8442d1f42adb4e02b88203c3f0b056da&#45;&gt;2a9ffd53302e4cfeb6f2fc5e672366db -->
<g id="edge11" class="edge">
<title>8442d1f42adb4e02b88203c3f0b056da&#45;&gt;2a9ffd53302e4cfeb6f2fc5e672366db</title>
<path fill="none" stroke="grey" d="M581.84,-94.44C595.58,-93.45 610.62,-93.24 624.92,-93.81"/>
<polygon fill="grey" stroke="grey" points="624.49,-97.29 634.66,-94.35 624.87,-90.31 624.49,-97.29"/>
</g>
<!-- a84daa98a143490695ddb1e849d5962b -->
<g id="node8" class="node">
<title>a84daa98a143490695ddb1e849d5962b</title>
<image xlink:href="C:\Users\dante\AppData\Local\pypoetry\Cache\virtualenvs\sirius-olympiad-Gea_4FZI-py3.11\Lib\site-packages\aiogram_dialog\tools\calculator.png" width="101px" height="101px" preserveAspectRatio="xMinYMin meet" x="16" y="-452.5"/>
<text text-anchor="middle" x="66.5" y="-337.1" font-family="Sans-Serif" font-size="13.00" fill="#2d3436">AdminSG:Hello Admin</text>
</g>
<!-- a84daa98a143490695ddb1e849d5962b&#45;&gt;a84daa98a143490695ddb1e849d5962b -->
<g id="edge12" class="edge">
<title>a84daa98a143490695ddb1e849d5962b&#45;&gt;a84daa98a143490695ddb1e849d5962b</title>
<path fill="none" stroke="grey" d="M66.5,-402C66.5,-402 66.5,-402 66.5,-402"/>
<polygon fill="grey" stroke="grey" points="81.07,-409.57 67.57,-403.07 74.07,-416.57 81.07,-409.57"/>
</g>
</g>
</svg>
